<?xml version="1.0" encoding="utf-8"?>
<svg version="1.1" id="Layer_6" xmlns="http://www.w3.org/2000/svg" xmlns:xlink="http://www.w3.org/1999/xlink" x="0px" y="0px"
	 viewBox="0 0 262.6 262.6" style="enable-background:new 0 0 262.6 262.6;" xml:space="preserve">
<style type="text/css">
	.st0{fill:#F2F2F2;stroke:#969696;stroke-width:0.15;stroke-miterlimit:10;}
	.st1{fill:url(#SVGID_1_);stroke:#969696;stroke-width:0.15;stroke-miterlimit:10;}
	.st2{fill:#55B68C;}
	.st3{fill:#BC242F;}
	.st4{fill:#F2B800;}
	.st5{fill:#78C8D3;}
</style>
<metadata>
	Copyright (c) 2021 We Travel Hub, S.L., ALL RIGHTS RESERVED
</metadata>
<g>
	<g>
		<g>
			<circle class="st0" cx="131.3" cy="131.3" r="118.2"/>

				<linearGradient id="SVGID_1_" gradientUnits="userSpaceOnUse" x1="-5.409" y1="417.1265" x2="54.591" y2="417.1265" gradientTransform="matrix(3.9385 0 0 3.9385 34.4318 -1511.5502)">
				<stop  offset="0" style="stop-color:#FFFFFF;stop-opacity:0"/>
				<stop  offset="1" style="stop-color:#000000;stop-opacity:0.2"/>
			</linearGradient>
			<circle class="st1" cx="131.3" cy="131.3" r="118.2"/>
		</g>
	</g>
</g>
<g>
	<path class="st2" d="M107.7,42.3c-22.8,3.5-35.8,14.6-36.2,13.8c-0.4-0.4,7.1-5.5,16.1-9.5c4.3-2,11.4-5.1,19.7-7.1
		c29.9-7.1,53.6,1.6,55.5,2.4c7.5,2.8,17.3,7.1,26.8,15.4c24.8,20.9,29.5,50,30.7,59.1c0,0,5.5,30.7-7.1,58.7
		c-0.4,0.8,0,1.2,0.4,1.6l0,0c0.8,0.4,1.6,1.6,2,2c0,0,0,0.4,0.4,0.4c0.4,0.4,0.8,1.2,0,2.4c0,0-1.2,1.6-1.2,2
		c-1.2,1.6-13,15.8-33.9,24l0,0c-0.4,0-2.4,0.8-3.9,0.4c-1.2-0.4-1.6-1.2-2.4-2.8l0,0c-0.4-0.8-11-19.3-10.2-36.2c0,0,0-3.2,4.7-2.8
		l8.3,0.4c0.4,0,0.8,0,1.2-0.4c2.8-3.5,18.1-26,11.4-68.5c0,0-8.7-50-55.5-55.1l0,0C132.9,41.5,123,39.9,107.7,42.3z"/>
	<path class="st3" d="M174.2,212.8c0,0-24.8,10.6-42.5,2.4l0,0c-0.4-0.4-11.4-5.5-2.4-23.2l0,0c0.4-0.8,9.5-20.9,28.8-35.8l0,0
		c0.4,0,1.6-1.6,3.9,0l0,0l3.9,2c0,0,2.4,1.6,3.9-0.8c1.6-2,10.6-18.5,10.6-38.2l0,0c0-0.4,0.4-2.8-3.9-3.9c0,0-25.2-3.9-41,3.2l0,0
		c-1.2,0.8-1.6,0.8,0,4.3l1.2,2l0,0c0,0,0.8,1.2-0.4,2.4c-1.6,1.2-31.1,35.8-31.9,66.6v0.4c0,0.8-0.8,25.2,19.7,31.5l0.8,0.4
		c0.8,0,27.2,5.9,50-10.6c0,0,0.4-0.4,0.8-0.8C175,212.8,174.6,212.4,174.2,212.8L174.2,212.8z"/>
	<path class="st4" d="M73.8,203.4c0,0-15-22.4-11.8-56.7c0,0,0.4-20.1,18.9-49.6c0,0,0.4-0.8,1.6-0.8c0,0,3.2,0.4,3.9,0.4
		c0,0,1.6,0.4,1.2-3.2c-0.4-3.2-1.6-16.5-6.3-26c0,0-0.4-2.4-5.5-0.8c0,0-18.1,6.7-25.2,12.6c0,0-1.2,0.8-0.8,1.6
		c0,0.4,0.8,1.2,1.6,1.2c0,0,2,0.8,0.8,3.2c0,0-13,24.8-9.5,57.5C41.9,142.7,44.6,177,73.8,203.4z"/>
	<path class="st5" d="M111.2,221.9c0,0-22.8-13-13.8-52.8c0,0,5.5-33.1,41.4-63.8c0,0,1.2-1.2,2.8,0c0,0,4.7,2,7.1,2.4
		c0,0,1.6,0.4,2.8-1.6c0.8-1.6,6.3-22.4,2-43.7c-0.4-1.2-1.2-3.2-2-3.2c-1.2-0.4-2.4-0.8-5.1-0.4c0,0-27.2,1.6-42.9,12.2
		c0,0-0.8,0.8-0.8,1.2s0,1.2,2,3.2c1.2,1.2,1.6,2,1.6,2.8s-0.4,2-0.8,2C97.4,90.7,89.9,102.1,84,114c-5.9,12.2-13,28-13.8,48
		c-0.4,7.9,0.8,13,0.8,14.6c2.4,14.6,8.7,25.2,13,31.5C83.6,207.7,93.5,219.9,111.2,221.9z"/>
</g>
</svg>
